<mxfile host="Electron" agent="Mozilla/5.0 (X11; Linux x86_64) AppleWebKit/537.36 (KHTML, like Gecko) draw.io/26.2.2 Chrome/134.0.6998.178 Electron/35.1.2 Safari/537.36" version="26.2.2">
  <diagram name="페이지-1" id="xMzzPXR7v2SXnp098D4g">
    <mxGraphModel dx="1602" dy="992" grid="1" gridSize="10" guides="1" tooltips="1" connect="1" arrows="1" fold="1" page="1" pageScale="1" pageWidth="4681" pageHeight="3300" math="0" shadow="0">
      <root>
        <mxCell id="0" />
        <mxCell id="1" parent="0" />
        <mxCell id="a332PuvnUpVq8rI7q_K6-5" value="" style="edgeStyle=orthogonalEdgeStyle;rounded=0;orthogonalLoop=1;jettySize=auto;html=1;fontSize=12;labelBackgroundColor=none;fontColor=default;" edge="1" parent="1" source="a332PuvnUpVq8rI7q_K6-1" target="a332PuvnUpVq8rI7q_K6-4">
          <mxGeometry relative="1" as="geometry" />
        </mxCell>
        <mxCell id="a332PuvnUpVq8rI7q_K6-1" value="" style="ellipse;whiteSpace=wrap;html=1;aspect=fixed;fontSize=12;labelBackgroundColor=none;" vertex="1" parent="1">
          <mxGeometry x="1537.5" y="630" width="40" height="40" as="geometry" />
        </mxCell>
        <mxCell id="a332PuvnUpVq8rI7q_K6-45" style="edgeStyle=orthogonalEdgeStyle;rounded=0;orthogonalLoop=1;jettySize=auto;html=1;entryX=0.5;entryY=0;entryDx=0;entryDy=0;labelBackgroundColor=none;fontColor=default;fontSize=12;" edge="1" parent="1" source="a332PuvnUpVq8rI7q_K6-4" target="a332PuvnUpVq8rI7q_K6-20">
          <mxGeometry relative="1" as="geometry" />
        </mxCell>
        <mxCell id="a332PuvnUpVq8rI7q_K6-4" value="self.model = CalculatorModel()&lt;div&gt;self.view = view&lt;/div&gt;&lt;div&gt;self.view.connect_signals(self)&lt;/div&gt;&lt;div&gt;self.update_display()&lt;/div&gt;" style="whiteSpace=wrap;html=1;fontSize=12;labelBackgroundColor=none;" vertex="1" parent="1">
          <mxGeometry x="1437.5" y="710" width="240" height="80" as="geometry" />
        </mxCell>
        <mxCell id="a332PuvnUpVq8rI7q_K6-14" style="edgeStyle=orthogonalEdgeStyle;rounded=0;orthogonalLoop=1;jettySize=auto;html=1;entryX=0.5;entryY=0;entryDx=0;entryDy=0;fontColor=default;labelBackgroundColor=none;fontSize=12;" edge="1" parent="1" source="a332PuvnUpVq8rI7q_K6-20" target="a332PuvnUpVq8rI7q_K6-28">
          <mxGeometry relative="1" as="geometry" />
        </mxCell>
        <mxCell id="a332PuvnUpVq8rI7q_K6-15" style="edgeStyle=orthogonalEdgeStyle;rounded=0;orthogonalLoop=1;jettySize=auto;html=1;fontColor=default;labelBackgroundColor=none;fontSize=12;" edge="1" parent="1" source="a332PuvnUpVq8rI7q_K6-20" target="a332PuvnUpVq8rI7q_K6-22">
          <mxGeometry relative="1" as="geometry" />
        </mxCell>
        <mxCell id="a332PuvnUpVq8rI7q_K6-16" style="edgeStyle=orthogonalEdgeStyle;rounded=0;orthogonalLoop=1;jettySize=auto;html=1;entryX=0.5;entryY=0;entryDx=0;entryDy=0;fontColor=default;labelBackgroundColor=none;fontSize=12;" edge="1" parent="1" source="a332PuvnUpVq8rI7q_K6-20" target="a332PuvnUpVq8rI7q_K6-24">
          <mxGeometry relative="1" as="geometry" />
        </mxCell>
        <mxCell id="a332PuvnUpVq8rI7q_K6-17" style="edgeStyle=orthogonalEdgeStyle;rounded=0;orthogonalLoop=1;jettySize=auto;html=1;entryX=0.5;entryY=0;entryDx=0;entryDy=0;fontColor=default;labelBackgroundColor=none;fontSize=12;" edge="1" parent="1" source="a332PuvnUpVq8rI7q_K6-20" target="a332PuvnUpVq8rI7q_K6-26">
          <mxGeometry relative="1" as="geometry" />
        </mxCell>
        <mxCell id="a332PuvnUpVq8rI7q_K6-18" style="edgeStyle=orthogonalEdgeStyle;rounded=0;orthogonalLoop=1;jettySize=auto;html=1;entryX=0.5;entryY=0;entryDx=0;entryDy=0;fontColor=default;labelBackgroundColor=none;fontSize=12;" edge="1" parent="1" source="a332PuvnUpVq8rI7q_K6-20" target="a332PuvnUpVq8rI7q_K6-30">
          <mxGeometry relative="1" as="geometry" />
        </mxCell>
        <mxCell id="a332PuvnUpVq8rI7q_K6-19" style="edgeStyle=orthogonalEdgeStyle;rounded=0;orthogonalLoop=1;jettySize=auto;html=1;entryX=0.5;entryY=0;entryDx=0;entryDy=0;fontColor=default;labelBackgroundColor=none;fontSize=12;" edge="1" parent="1" source="a332PuvnUpVq8rI7q_K6-20" target="a332PuvnUpVq8rI7q_K6-32">
          <mxGeometry relative="1" as="geometry" />
        </mxCell>
        <mxCell id="a332PuvnUpVq8rI7q_K6-124" style="edgeStyle=orthogonalEdgeStyle;rounded=0;orthogonalLoop=1;jettySize=auto;html=1;entryX=0.5;entryY=0;entryDx=0;entryDy=0;" edge="1" parent="1" source="a332PuvnUpVq8rI7q_K6-20" target="a332PuvnUpVq8rI7q_K6-122">
          <mxGeometry relative="1" as="geometry" />
        </mxCell>
        <mxCell id="a332PuvnUpVq8rI7q_K6-20" value="signal" style="rhombus;whiteSpace=wrap;html=1;strokeWidth=2;labelBackgroundColor=none;fontSize=12;" vertex="1" parent="1">
          <mxGeometry x="1442.5" y="840" width="230" height="80" as="geometry" />
        </mxCell>
        <mxCell id="a332PuvnUpVq8rI7q_K6-125" style="edgeStyle=orthogonalEdgeStyle;rounded=0;orthogonalLoop=1;jettySize=auto;html=1;entryX=0.5;entryY=0;entryDx=0;entryDy=0;" edge="1" parent="1" source="a332PuvnUpVq8rI7q_K6-22" target="a332PuvnUpVq8rI7q_K6-20">
          <mxGeometry relative="1" as="geometry">
            <Array as="points">
              <mxPoint x="1060" y="1120" />
              <mxPoint x="890" y="1120" />
              <mxPoint x="890" y="820" />
              <mxPoint x="1558" y="820" />
            </Array>
          </mxGeometry>
        </mxCell>
        <mxCell id="a332PuvnUpVq8rI7q_K6-22" value="handle_digit()" style="whiteSpace=wrap;html=1;strokeWidth=2;labelBackgroundColor=none;fontSize=12;" vertex="1" parent="1">
          <mxGeometry x="1010" y="1000" width="100" height="60" as="geometry" />
        </mxCell>
        <mxCell id="a332PuvnUpVq8rI7q_K6-126" style="edgeStyle=orthogonalEdgeStyle;rounded=0;orthogonalLoop=1;jettySize=auto;html=1;entryX=0.5;entryY=0;entryDx=0;entryDy=0;" edge="1" parent="1" source="a332PuvnUpVq8rI7q_K6-24" target="a332PuvnUpVq8rI7q_K6-20">
          <mxGeometry relative="1" as="geometry">
            <Array as="points">
              <mxPoint x="1190" y="1120" />
              <mxPoint x="890" y="1120" />
              <mxPoint x="890" y="820" />
              <mxPoint x="1558" y="820" />
            </Array>
          </mxGeometry>
        </mxCell>
        <mxCell id="a332PuvnUpVq8rI7q_K6-24" value="handle_operator()" style="whiteSpace=wrap;html=1;strokeWidth=2;labelBackgroundColor=none;fontSize=12;" vertex="1" parent="1">
          <mxGeometry x="1140" y="1000" width="100" height="60" as="geometry" />
        </mxCell>
        <mxCell id="a332PuvnUpVq8rI7q_K6-127" style="edgeStyle=orthogonalEdgeStyle;rounded=0;orthogonalLoop=1;jettySize=auto;html=1;entryX=0.5;entryY=0;entryDx=0;entryDy=0;" edge="1" parent="1" source="a332PuvnUpVq8rI7q_K6-26" target="a332PuvnUpVq8rI7q_K6-20">
          <mxGeometry relative="1" as="geometry">
            <Array as="points">
              <mxPoint x="1320" y="1120" />
              <mxPoint x="890" y="1120" />
              <mxPoint x="890" y="820" />
              <mxPoint x="1558" y="820" />
            </Array>
          </mxGeometry>
        </mxCell>
        <mxCell id="a332PuvnUpVq8rI7q_K6-26" value="handle_paren()" style="whiteSpace=wrap;html=1;strokeWidth=2;labelBackgroundColor=none;fontSize=12;" vertex="1" parent="1">
          <mxGeometry x="1270" y="1000" width="100" height="60" as="geometry" />
        </mxCell>
        <mxCell id="a332PuvnUpVq8rI7q_K6-129" style="edgeStyle=orthogonalEdgeStyle;rounded=0;orthogonalLoop=1;jettySize=auto;html=1;entryX=0.5;entryY=0;entryDx=0;entryDy=0;" edge="1" parent="1" source="a332PuvnUpVq8rI7q_K6-28" target="a332PuvnUpVq8rI7q_K6-20">
          <mxGeometry relative="1" as="geometry">
            <Array as="points">
              <mxPoint x="1558" y="1120" />
              <mxPoint x="890" y="1120" />
              <mxPoint x="890" y="820" />
              <mxPoint x="1558" y="820" />
            </Array>
          </mxGeometry>
        </mxCell>
        <mxCell id="a332PuvnUpVq8rI7q_K6-28" value="handle_equal" style="whiteSpace=wrap;html=1;strokeWidth=2;labelBackgroundColor=none;fontSize=12;" vertex="1" parent="1">
          <mxGeometry x="1507.5" y="1000" width="100" height="60" as="geometry" />
        </mxCell>
        <mxCell id="a332PuvnUpVq8rI7q_K6-130" style="edgeStyle=orthogonalEdgeStyle;rounded=0;orthogonalLoop=1;jettySize=auto;html=1;entryX=0.5;entryY=0;entryDx=0;entryDy=0;" edge="1" parent="1" source="a332PuvnUpVq8rI7q_K6-30" target="a332PuvnUpVq8rI7q_K6-20">
          <mxGeometry relative="1" as="geometry">
            <Array as="points">
              <mxPoint x="1688" y="1120" />
              <mxPoint x="2130" y="1120" />
              <mxPoint x="2130" y="820" />
              <mxPoint x="1558" y="820" />
            </Array>
          </mxGeometry>
        </mxCell>
        <mxCell id="a332PuvnUpVq8rI7q_K6-30" value="handle_ac" style="whiteSpace=wrap;html=1;strokeWidth=2;labelBackgroundColor=none;fontSize=12;" vertex="1" parent="1">
          <mxGeometry x="1637.5" y="1000" width="100" height="60" as="geometry" />
        </mxCell>
        <mxCell id="a332PuvnUpVq8rI7q_K6-131" style="edgeStyle=orthogonalEdgeStyle;rounded=0;orthogonalLoop=1;jettySize=auto;html=1;entryX=0.5;entryY=0;entryDx=0;entryDy=0;" edge="1" parent="1" source="a332PuvnUpVq8rI7q_K6-32" target="a332PuvnUpVq8rI7q_K6-20">
          <mxGeometry relative="1" as="geometry">
            <Array as="points">
              <mxPoint x="1818" y="1120" />
              <mxPoint x="2130" y="1120" />
              <mxPoint x="2130" y="820" />
              <mxPoint x="1558" y="820" />
            </Array>
          </mxGeometry>
        </mxCell>
        <mxCell id="a332PuvnUpVq8rI7q_K6-32" value="handle_c" style="whiteSpace=wrap;html=1;strokeWidth=2;labelBackgroundColor=none;fontSize=12;" vertex="1" parent="1">
          <mxGeometry x="1767.5" y="1000" width="100" height="60" as="geometry" />
        </mxCell>
        <mxCell id="a332PuvnUpVq8rI7q_K6-132" style="edgeStyle=orthogonalEdgeStyle;rounded=0;orthogonalLoop=1;jettySize=auto;html=1;entryX=0.5;entryY=0;entryDx=0;entryDy=0;" edge="1" parent="1" source="a332PuvnUpVq8rI7q_K6-34" target="a332PuvnUpVq8rI7q_K6-20">
          <mxGeometry relative="1" as="geometry">
            <Array as="points">
              <mxPoint x="1948" y="1120" />
              <mxPoint x="2130" y="1120" />
              <mxPoint x="2130" y="820" />
              <mxPoint x="1558" y="820" />
            </Array>
          </mxGeometry>
        </mxCell>
        <mxCell id="a332PuvnUpVq8rI7q_K6-34" value="handle_sign" style="whiteSpace=wrap;html=1;strokeWidth=2;labelBackgroundColor=none;fontSize=12;" vertex="1" parent="1">
          <mxGeometry x="1897.5" y="1000" width="100" height="60" as="geometry" />
        </mxCell>
        <mxCell id="a332PuvnUpVq8rI7q_K6-35" style="edgeStyle=orthogonalEdgeStyle;rounded=0;orthogonalLoop=1;jettySize=auto;html=1;entryX=0.5;entryY=0;entryDx=0;entryDy=0;fontColor=default;labelBackgroundColor=none;fontSize=12;" edge="1" parent="1" source="a332PuvnUpVq8rI7q_K6-20" target="a332PuvnUpVq8rI7q_K6-34">
          <mxGeometry relative="1" as="geometry" />
        </mxCell>
        <mxCell id="a332PuvnUpVq8rI7q_K6-36" value="self.pushButton_point.clicked" style="text;html=1;align=center;verticalAlign=middle;resizable=0;points=[];autosize=1;strokeColor=none;fillColor=none;labelBackgroundColor=none;fontSize=12;" vertex="1" parent="1">
          <mxGeometry x="900" y="950" width="180" height="30" as="geometry" />
        </mxCell>
        <mxCell id="a332PuvnUpVq8rI7q_K6-37" value="self.pushButton_{operators}.clicked" style="text;html=1;align=center;verticalAlign=middle;resizable=0;points=[];autosize=1;strokeColor=none;fillColor=none;labelBackgroundColor=none;fontSize=12;" vertex="1" parent="1">
          <mxGeometry x="1085" y="968" width="210" height="30" as="geometry" />
        </mxCell>
        <mxCell id="a332PuvnUpVq8rI7q_K6-38" value="self.pushButton_lparen.clicked" style="text;html=1;align=center;verticalAlign=middle;resizable=0;points=[];autosize=1;strokeColor=none;fillColor=none;labelBackgroundColor=none;fontSize=12;" vertex="1" parent="1">
          <mxGeometry x="1220" y="938" width="190" height="30" as="geometry" />
        </mxCell>
        <mxCell id="a332PuvnUpVq8rI7q_K6-39" value="self.pushButton_equal.clicked" style="text;html=1;align=center;verticalAlign=middle;resizable=0;points=[];autosize=1;strokeColor=none;fillColor=none;labelBackgroundColor=none;fontSize=12;" vertex="1" parent="1">
          <mxGeometry x="1467.5" y="968" width="180" height="30" as="geometry" />
        </mxCell>
        <mxCell id="a332PuvnUpVq8rI7q_K6-40" value="self.pushButton_ac.clicked" style="text;html=1;align=center;verticalAlign=middle;resizable=0;points=[];autosize=1;strokeColor=none;fillColor=none;labelBackgroundColor=none;fontSize=12;" vertex="1" parent="1">
          <mxGeometry x="1597.5" y="938" width="170" height="30" as="geometry" />
        </mxCell>
        <mxCell id="a332PuvnUpVq8rI7q_K6-41" value="self.pushButton_c.clicked" style="text;html=1;align=center;verticalAlign=middle;resizable=0;points=[];autosize=1;strokeColor=none;fillColor=none;labelBackgroundColor=none;fontSize=12;" vertex="1" parent="1">
          <mxGeometry x="1737.5" y="968" width="160" height="30" as="geometry" />
        </mxCell>
        <mxCell id="a332PuvnUpVq8rI7q_K6-42" value="self.pushButton_sign.clicked" style="text;html=1;align=center;verticalAlign=middle;resizable=0;points=[];autosize=1;strokeColor=none;fillColor=none;labelBackgroundColor=none;fontSize=12;" vertex="1" parent="1">
          <mxGeometry x="1947.5" y="968" width="170" height="30" as="geometry" />
        </mxCell>
        <mxCell id="a332PuvnUpVq8rI7q_K6-128" style="edgeStyle=orthogonalEdgeStyle;rounded=0;orthogonalLoop=1;jettySize=auto;html=1;entryX=0.5;entryY=0;entryDx=0;entryDy=0;" edge="1" parent="1" source="a332PuvnUpVq8rI7q_K6-122" target="a332PuvnUpVq8rI7q_K6-20">
          <mxGeometry relative="1" as="geometry">
            <Array as="points">
              <mxPoint x="1440" y="1120" />
              <mxPoint x="890" y="1120" />
              <mxPoint x="890" y="820" />
              <mxPoint x="1558" y="820" />
            </Array>
          </mxGeometry>
        </mxCell>
        <mxCell id="a332PuvnUpVq8rI7q_K6-122" value="handle_paren()" style="whiteSpace=wrap;html=1;strokeWidth=2;labelBackgroundColor=none;fontSize=12;" vertex="1" parent="1">
          <mxGeometry x="1390" y="1000" width="100" height="60" as="geometry" />
        </mxCell>
        <mxCell id="a332PuvnUpVq8rI7q_K6-123" value="self.pushButton_rparen.clicked" style="text;html=1;align=center;verticalAlign=middle;resizable=0;points=[];autosize=1;strokeColor=none;fillColor=none;labelBackgroundColor=none;fontSize=12;" vertex="1" parent="1">
          <mxGeometry x="1295" y="970" width="190" height="30" as="geometry" />
        </mxCell>
      </root>
    </mxGraphModel>
  </diagram>
</mxfile>
